<?xml version="1.0" standalone="no"?>
<!DOCTYPE svg PUBLIC "-//W3C//DTD SVG 20010904//EN"
 "http://www.w3.org/TR/2001/REC-SVG-20010904/DTD/svg10.dtd">
<svg version="1.0" xmlns="http://www.w3.org/2000/svg"
 width="260.000000pt" height="260.000000pt" viewBox="0 0 260.000000 260.000000"
 preserveAspectRatio="xMidYMid meet">
<metadata>
Created by potrace 1.11, written by Peter Selinger 2001-2013
</metadata>
<g transform="translate(0.000000,260.000000) scale(0.100000,-0.100000)"
fill="#000000" stroke="none">
<path d="M2310 2179 c-58 -10 -125 -21 -150 -24 -25 -3 -54 -7 -65 -10 -11 -2
-34 -4 -51 -4 -30 -1 -33 -6 -65 -81 -18 -44 -37 -80 -43 -81 -48 -3 -126 -10
-149 -13 l-29 -5 6 57 c4 31 9 70 12 85 l6 29 -74 -6 c-40 -4 -84 -8 -98 -10
-14 -2 -68 -7 -120 -11 -130 -10 -164 -13 -171 -14 -4 -1 -12 -22 -19 -48 -7
-27 -17 -53 -21 -58 -4 -6 -37 -12 -73 -13 -36 -2 -75 -5 -86 -7 -15 -3 -20 1
-20 18 0 21 15 92 26 130 5 17 -1 18 -78 13 -188 -12 -253 -19 -260 -29 -3 -5
-9 -34 -13 -64 -3 -29 -12 -53 -18 -54 -7 0 -21 -2 -31 -4 -20 -4 -92 -8 -112
-6 -8 1 -6 25 7 79 22 93 22 92 7 87 -7 -2 -44 -6 -83 -9 -38 -3 -95 -8 -125
-11 -85 -10 -114 -13 -131 -14 -15 -1 -35 -70 -54 -186 -3 -16 -10 -52 -15
-80 -5 -27 -12 -66 -15 -85 -3 -19 -8 -42 -10 -50 -2 -8 -7 -31 -10 -50 -3
-19 -8 -48 -12 -65 -3 -16 -7 -37 -8 -45 -2 -8 -12 -71 -24 -140 -12 -69 -24
-138 -27 -155 -2 -16 -6 -41 -9 -55 -2 -14 -7 -45 -10 -70 -3 -25 -8 -52 -10
-60 -2 -8 -7 -40 -10 -70 -4 -30 -9 -58 -11 -61 -2 -4 -7 -56 -10 -116 -6 -98
-4 -114 14 -156 22 -49 88 -121 121 -132 10 -3 35 -30 54 -60 120 -180 437
-170 631 19 52 50 68 60 109 66 32 4 50 3 53 -4 2 -6 -7 -44 -20 -85 l-25 -73
107 7 c59 4 123 8 142 10 19 1 54 3 77 4 l41 1 21 69 21 68 75 2 75 2 -6 -81
-7 -82 89 6 c49 4 108 7 131 8 l43 1 27 83 c15 46 30 79 33 73 5 -7 31 -5 80
5 41 9 76 13 79 11 4 -5 4 -30 -3 -138 l-3 -39 46 7 c25 3 55 8 66 10 11 2 74
13 140 25 66 12 124 25 128 29 5 5 11 37 13 72 2 35 6 87 9 114 3 28 7 79 10
115 11 133 13 156 20 220 3 36 11 108 17 160 5 52 11 111 13 130 4 40 15 144
20 180 2 14 6 50 10 80 4 30 8 66 10 80 2 14 7 52 11 85 3 33 8 63 10 66 2 3
6 28 9 55 3 27 7 56 9 64 1 8 6 38 10 65 4 28 10 59 13 69 5 17 1 18 -38 12
-24 -4 -62 -10 -84 -13 -22 -3 -44 -6 -50 -7 -5 0 -9 4 -8 9 0 6 4 26 7 45 11
64 19 130 15 129 -2 -1 -51 -10 -109 -20z"/>
</g>
</svg>
